<svg width="18" height="18" viewBox="0 0 18 18" fill="none" xmlns="http://www.w3.org/2000/svg">
    <g clip-path="url(#clip0_822_13673)">
        <path d="M17.9991 5.8586C17.8702 5.99641 17.7521 6.14688 17.6096 6.26828C17.4095 6.43891 17.1934 6.59032 16.9805 6.74454C16.7185 6.93204 16.4682 6.91516 16.239 6.68969C15.9634 6.41922 15.6868 6.15016 15.421 5.87032C15.2812 5.7136 15.1038 5.59518 14.9054 5.52626C14.762 5.47939 14.6241 5.40954 14.4835 5.35704C14.1976 5.2511 13.9079 5.36876 13.7945 5.63173C13.7673 5.69522 13.753 5.76347 13.7525 5.83253C13.7519 5.90158 13.7651 5.97006 13.7913 6.03397C13.8175 6.09787 13.8561 6.15593 13.9049 6.20477C13.9538 6.25361 14.0118 6.29225 14.0757 6.31844C14.4005 6.46422 14.732 6.59969 15.0601 6.72625C15.166 6.76704 15.196 6.82001 15.1951 6.93063C15.1899 7.6436 15.203 8.35703 15.1904 9.07C15.166 10.4411 14.6077 11.5497 13.5268 12.3981C13.4586 12.455 13.4131 12.5345 13.3988 12.6222C13.2905 13.5213 13.1949 14.4217 13.0871 15.3208C13.0693 15.468 13.1101 15.5458 13.2334 15.6306C13.6051 15.8866 13.7855 16.255 13.7879 16.7088C13.7879 17.0369 13.569 17.2624 13.2418 17.2647C12.7623 17.2689 12.2827 17.2675 11.8037 17.2647C11.4423 17.2647 11.2285 17.0477 11.228 16.6834C11.228 15.2569 11.228 13.8305 11.228 12.4042V12.1853C10.5751 12.4558 9.93758 12.7225 9.23633 12.8223V9.54579H10.3402C10.7874 9.54579 10.9824 9.35219 10.9824 8.90782C10.9824 8.07204 10.9824 7.23579 10.9857 6.40001C10.9857 6.32501 11.0288 6.25047 11.0509 6.17594C11.087 6.055 11.1498 5.93501 11.153 5.8136C11.1652 5.36969 11.1568 4.92298 11.1582 4.48095C11.1657 2.40485 12.789 0.782036 14.867 0.774068C15.5916 0.771724 16.3168 0.77688 17.0415 0.774068C17.2759 0.774068 17.4676 0.84063 17.5848 1.05532C17.702 1.27001 17.6509 1.45845 17.5285 1.64876C17.2979 2.00736 17.0677 2.36641 16.8484 2.73204C16.8294 2.76775 16.8179 2.80697 16.8147 2.84728C16.8115 2.88759 16.8165 2.92814 16.8296 2.96641C17.2046 3.83407 17.5909 4.69751 17.9748 5.56189C17.9785 5.57079 17.9912 5.57595 18.0001 5.58345L17.9991 5.8586Z"
              fill="white"/>
        <path d="M8.16437 12.8905C7.96 12.8581 7.75516 12.8272 7.55125 12.7939C6.9833 12.6999 6.43115 12.5275 5.91062 12.2816C5.87594 12.3819 5.84781 12.4757 5.81219 12.5671C5.59556 13.1352 5.18448 13.608 4.65203 13.9016C4.58142 13.945 4.52984 14.0135 4.50766 14.0933C4.41391 14.5208 4.33469 14.9516 4.24469 15.38C4.22406 15.4799 4.24469 15.5314 4.33562 15.5896C4.74578 15.8525 4.94875 16.2364 4.945 16.7235C4.94717 16.794 4.935 16.8642 4.90925 16.9298C4.88349 16.9955 4.84468 17.0552 4.79516 17.1055C4.74564 17.1557 4.68644 17.1953 4.62115 17.222C4.55586 17.2487 4.48583 17.2618 4.41531 17.2606C3.96531 17.2663 3.51531 17.2681 3.06531 17.2606C2.88425 17.2589 2.71124 17.1856 2.58413 17.0566C2.45702 16.9276 2.38616 16.7536 2.38703 16.5725C2.38141 15.5794 2.38141 14.5858 2.38703 13.5917C2.39407 13.4817 2.42426 13.3743 2.47562 13.2767C2.64953 12.9135 2.8375 12.5567 3.01047 12.193C3.05701 12.0998 3.08291 11.9976 3.08641 11.8935C3.0925 11.0342 3.08359 10.175 3.09203 9.31533C3.10656 7.77643 4.33609 6.48737 5.87172 6.39034C5.92984 6.38659 5.98844 6.39034 6.07234 6.39034V6.57784C6.07234 7.36659 6.07234 8.15565 6.07234 8.94503C6.07234 9.33268 6.28094 9.54315 6.66531 9.54362C7.16172 9.54362 7.65766 9.54362 8.16531 9.54362C8.17212 9.58506 8.17666 9.62684 8.17891 9.66877C8.17891 10.6922 8.17891 11.7152 8.17891 12.7377C8.17891 12.7902 8.16953 12.8422 8.16484 12.8942L8.16437 12.8905Z"
              fill="white"/>
        <path opacity="0.6"
              d="M3.30514 6.39654C3.11014 6.63795 2.90904 6.85826 2.73982 7.09967C2.27623 7.76482 2.05029 8.51013 2.0367 9.3206C2.02732 9.82263 2.06529 10.3322 1.99311 10.8253C1.87732 11.6137 1.39357 12.134 0.633731 12.3918C0.551625 12.4252 0.461179 12.432 0.374979 12.4115C0.28878 12.391 0.211115 12.3442 0.152793 12.2775C0.0898762 12.2146 0.0488441 12.1332 0.0357603 12.0453C0.0226765 11.9573 0.038235 11.8675 0.0801368 11.789C0.455137 10.9922 0.585449 10.1508 0.582637 9.27044C0.577949 7.74419 1.66076 6.56951 3.17811 6.39607C3.22042 6.39387 3.26283 6.39403 3.30514 6.39654Z"
              fill="white"/>
        <path opacity="0.6" d="M7.13477 6.39258H9.91961V8.47617H7.13477V6.39258Z" fill="white"/>
        <path d="M8.16016 12.8946L8.99359 12.8477C9.06297 12.8435 9.13422 12.8412 9.20078 12.8379C9.24766 13.0788 9.10188 13.3005 8.84781 13.3798C8.72364 13.4171 8.58998 13.4067 8.47308 13.3506C8.35617 13.2945 8.26446 13.1967 8.21594 13.0765C8.19532 13.016 8.1778 12.9545 8.16344 12.8923L8.16016 12.8946Z"
              fill="white"/>
    </g>
    <defs>
        <clipPath id="clip0_822_13673">
            <rect width="18" height="18" fill="white"/>
        </clipPath>
    </defs>
</svg>
