<svg width="30" height="30" viewBox="0 0 30 30" fill="none" xmlns="http://www.w3.org/2000/svg">
<path opacity="0.4" d="M15.3969 20.5554L15 20.3286L14.6031 20.5554L7.05 24.8715V7.5C7.05 6.37332 7.33113 5.67524 7.75319 5.25319C8.17524 4.83113 8.87332 4.55 10 4.55H20C21.1267 4.55 21.8248 4.83113 22.2468 5.25319C22.6689 5.67524 22.95 6.37332 22.95 7.5V24.8715L15.3969 20.5554Z" fill="#D5BDAF" stroke="#D5BDAF" stroke-width="1.6"/>
<path d="M18.508 12.1628L18.508 12.1627C18.6548 11.4185 18.5535 10.7373 18.2839 10.2748C18.0366 9.85041 17.6209 9.55315 16.9307 9.55001L18.508 12.1628ZM18.508 12.1628C18.2792 13.3234 17.3922 14.3109 16.4422 15.0486C15.9798 15.4076 15.5315 15.6849 15.1985 15.8723C15.1263 15.9129 15.0598 15.9492 15.0001 15.9809C14.9405 15.9492 14.874 15.913 14.8018 15.8724C14.4689 15.6851 14.0206 15.4079 13.5583 15.049C12.6084 14.3116 11.7214 13.3241 11.4926 12.1629L11.4925 12.1627M18.508 12.1628L11.4925 12.1627M11.4925 12.1627C11.3458 11.4192 11.4477 10.738 11.7178 10.2751M11.4925 12.1627L11.7178 10.2751M14.2445 10.4413L15.0002 12.6707L15.756 10.4413C15.7571 10.4382 15.7597 10.4314 15.7639 10.4213C15.7729 10.3993 15.7889 10.3628 15.8123 10.3166C15.86 10.2226 15.9336 10.0989 16.0354 9.97843C16.2336 9.74395 16.5096 9.54824 16.9306 9.55001L14.2445 10.4413ZM14.2445 10.4413C14.2434 10.4382 14.2408 10.4314 14.2366 10.4213C14.2276 10.3993 14.2116 10.3627 14.1882 10.3166C14.1405 10.2226 14.0669 10.0989 13.9651 9.97843C13.7669 9.74395 13.4909 9.54824 13.07 9.55001L14.2445 10.4413ZM11.7178 10.2751C11.9659 9.85006 12.3819 9.55315 13.0698 9.55001L11.7178 10.2751Z" fill="#D5BDAF" stroke="#D5BDAF" stroke-width="1.6"/>
</svg>
