<svg xmlns="http://www.w3.org/2000/svg" width="15" height="15" viewBox="0 0 15 15" fill="none">
    <g opacity="0.8">
        <path d="M4.375 6.875V11.875C4.375 12.0408 4.30915 12.1997 4.19194 12.3169C4.07473 12.4342 3.91576 12.5 3.75 12.5H2.5C2.33424 12.5 2.17527 12.4342 2.05806 12.3169C1.94085 12.1997 1.875 12.0408 1.875 11.875V7.5C1.875 7.33424 1.94085 7.17527 2.05806 7.05806C2.17527 6.94085 2.33424 6.875 2.5 6.875H4.375ZM4.375 6.875C5.03804 6.875 5.67393 6.61161 6.14277 6.14277C6.61161 5.67393 6.875 5.03804 6.875 4.375V3.75C6.875 3.41848 7.0067 3.10054 7.24112 2.86612C7.47554 2.6317 7.79348 2.5 8.125 2.5C8.45652 2.5 8.77446 2.6317 9.00888 2.86612C9.2433 3.10054 9.375 3.41848 9.375 3.75V6.875H11.25C11.5815 6.875 11.8995 7.0067 12.1339 7.24112C12.3683 7.47554 12.5 7.79348 12.5 8.125L11.875 11.25C11.7851 11.6334 11.6146 11.9627 11.3892 12.1881C11.1637 12.4136 10.8955 12.523 10.625 12.5H6.25C5.75272 12.5 5.27581 12.3025 4.92417 11.9508C4.57254 11.5992 4.375 11.1223 4.375 10.625"
              stroke="#E9E9F0" stroke-linecap="round" stroke-linejoin="round"/>
    </g>
</svg>